<?xml version='1.0' encoding='iso-8859-1'?>
<!DOCTYPE svg PUBLIC '-//W3C//DTD SVG 1.1//EN' 'http://www.w3.org/Graphics/SVG/1.1/DTD/svg11.dtd'>
<svg version="1.1" xmlns="http://www.w3.org/2000/svg" viewBox="0 0 422.842 422.842" xmlns:xlink="http://www.w3.org/1999/xlink" enable-background="new 0 0 422.842 422.842">
  <path d="m412.571,422.842h-107.237c-3.688,0-7.077-2.03-8.817-5.283-1.74-3.252-1.549-7.198 0.498-10.266 5.311-7.962 8.118-17.247 8.118-26.85 0-26.723-21.74-48.463-48.463-48.463s-48.463,21.741-48.463,48.463c0,9.603 2.808,18.887 8.118,26.85 2.047,3.068 2.238,7.014 0.498,10.266-1.74,3.252-5.129,5.283-8.817,5.283h-107.239c-5.522,0-10-4.477-10-10v-91.072c-7.046,2.397-14.475,3.633-22.032,3.633-37.751,0-68.464-30.712-68.464-68.463 0-37.751 30.713-68.463 68.464-68.463 7.558,0 14.986,1.236 22.032,3.633v-91.072c0-5.523 4.478-10 10-10h91.251c-2.515-7.2-3.812-14.813-3.812-22.576 0.001-37.75 30.713-68.462 68.464-68.462s68.463,30.712 68.463,68.463c0,7.763-1.297,15.375-3.812,22.576h91.25c5.522,0 10,4.477 10,10v107.366c0,3.696-2.038,7.09-5.301,8.827-3.262,1.736-7.215,1.533-10.282-0.531-7.995-5.38-17.337-8.224-27.016-8.224-26.723,0-48.463,21.741-48.463,48.463s21.74,48.463 48.463,48.463c9.68,0 19.021-2.844 27.016-8.224 3.064-2.064 7.02-2.269 10.282-0.531 3.263,1.737 5.301,5.131 5.301,8.827v107.367c0,5.523-4.477,10-10,10zm-91.192-20h81.192v-81.258c-7.206,2.52-14.827,3.819-22.599,3.819-37.751,0-68.463-30.712-68.463-68.463 0-37.751 30.712-68.463 68.463-68.463 7.771,0 15.392,1.299 22.599,3.819v-81.258h-97.351c-3.694,0-7.089-2.037-8.826-5.298-1.736-3.261-1.534-7.214 0.527-10.281 5.371-7.991 8.211-17.326 8.211-26.997 0.001-26.722-21.74-48.462-48.462-48.462s-48.463,21.74-48.463,48.463c0,9.67 2.84,19.006 8.211,26.997 2.062,3.066 2.265,7.02 0.527,10.281s-5.131,5.298-8.826,5.298h-97.352v97.003c0,3.675-2.016,7.054-5.25,8.8-3.236,1.747-7.166,1.577-10.238-0.44-7.896-5.184-17.075-7.924-26.544-7.924-26.723,0-48.464,21.741-48.464,48.463s21.741,48.463 48.464,48.463c9.469,0 18.647-2.74 26.544-7.924 3.072-2.017 7.002-2.187 10.238-0.44 3.234,1.746 5.25,5.125 5.25,8.8v97.004h81.193c-2.477-7.151-3.754-14.703-3.754-22.398 0-37.751 30.712-68.463 68.463-68.463s68.463,30.712 68.463,68.463c0.001,7.694-1.277,15.245-3.753,22.396z"/>
</svg>
